<?xml version="1.0" encoding="UTF-8" standalone="no"?><!DOCTYPE svg PUBLIC "-//W3C//DTD SVG 1.1//EN" "http://www.w3.org/Graphics/SVG/1.1/DTD/svg11.dtd"><svg width="100%" height="100%" viewBox="0 0 80 80" version="1.1" xmlns="http://www.w3.org/2000/svg" xmlns:xlink="http://www.w3.org/1999/xlink" xml:space="preserve" xmlns:serif="http://www.serif.com/" style="fill-rule:evenodd;clip-rule:evenodd;stroke-linejoin:round;stroke-miterlimit:2;"><g><path d="M36.775,32.663l2.931,4.147l2.93,-4.147l-0.862,5.003l5.006,-0.862l-4.149,2.929l4.149,2.928l-5.006,-0.862l0.862,5.004l-2.93,-4.147l-2.931,4.147l0.862,-5.004l-5.006,0.862l4.15,-2.928l-4.15,-2.929l5.006,0.862l-0.862,-5.003Z" style="fill:#fff;"/><g><g id="seed"><clipPath id="_clip1"><rect id="seed1" serif:id="seed" x="36.086" y="10.161" width="7.239" height="24.316"/></clipPath><g clip-path="url(#_clip1)"><path d="M39.715,10.161c2.252,3.201 3.628,7.471 3.628,12.158c0,4.686 -1.376,8.956 -3.628,12.158c-2.253,-3.202 -3.629,-7.472 -3.629,-12.158c0,-4.687 1.376,-8.957 3.629,-12.158Z" style="fill:#fff;"/></g><g id="seed2" serif:id="seed"></g></g><g id="seed3" serif:id="seed"><clipPath id="_clip2"><polygon id="seed4" serif:id="seed" points="16.255,21.374 21.374,16.255 38.567,33.449 33.449,38.567 16.255,21.374 "/></clipPath><g clip-path="url(#_clip2)"><path d="M18.821,18.808c3.856,0.671 7.849,2.717 11.162,6.031c3.314,3.314 5.361,7.306 6.032,11.163c-3.857,-0.671 -7.849,-2.718 -11.163,-6.032c-3.314,-3.313 -5.36,-7.306 -6.031,-11.162Z" style="fill:#fff;"/></g><g id="seed5" serif:id="seed"></g></g><g id="seed6" serif:id="seed"><clipPath id="_clip3"><polygon id="seed7" serif:id="seed" points="10.161,43.325 10.161,36.086 34.477,36.086 34.477,43.325 10.161,43.325 "/></clipPath><g clip-path="url(#_clip3)"><path d="M10.161,39.696c3.201,-2.252 7.471,-3.628 12.158,-3.628c4.686,-0 8.956,1.376 12.158,3.628c-3.202,2.253 -7.472,3.629 -12.158,3.629c-4.687,-0 -8.957,-1.376 -12.158,-3.629Z" style="fill:#fff;"/></g><g id="seed8" serif:id="seed"></g></g><g id="seed9" serif:id="seed"><clipPath id="_clip4"><polygon id="seed10" serif:id="seed" points="21.374,63.156 16.255,58.037 33.449,40.844 38.567,45.962 21.374,63.156 "/></clipPath><g clip-path="url(#_clip4)"><path d="M18.808,60.59c0.671,-3.856 2.717,-7.848 6.031,-11.162c3.314,-3.314 7.306,-5.361 11.163,-6.031c-0.671,3.856 -2.718,7.848 -6.032,11.162c-3.313,3.314 -7.306,5.36 -11.162,6.031Z" style="fill:#fff;"/></g><g id="seed11" serif:id="seed"></g></g><g id="seed12" serif:id="seed"><clipPath id="_clip5"><rect id="seed13" serif:id="seed" x="36.086" y="44.935" width="7.239" height="24.316"/></clipPath><g clip-path="url(#_clip5)"><path d="M39.696,69.25c-2.252,-3.201 -3.628,-7.471 -3.628,-12.158c-0,-4.686 1.376,-8.956 3.628,-12.157c2.253,3.201 3.629,7.471 3.629,12.157c-0,4.687 -1.376,8.957 -3.629,12.158Z" style="fill:#fff;"/></g><g id="seed14" serif:id="seed"></g></g><g id="seed15" serif:id="seed"><clipPath id="_clip6"><polygon id="seed16" serif:id="seed" points="63.156,58.037 58.037,63.156 40.844,45.962 45.962,40.844 63.156,58.037 "/></clipPath><g clip-path="url(#_clip6)"><path d="M60.59,60.603c-3.856,-0.671 -7.848,-2.717 -11.162,-6.031c-3.314,-3.314 -5.361,-7.306 -6.031,-11.163c3.856,0.671 7.848,2.718 11.162,6.032c3.314,3.313 5.36,7.306 6.031,11.162Z" style="fill:#fff;"/></g><g id="seed17" serif:id="seed"></g></g><g id="seed18" serif:id="seed"><clipPath id="_clip7"><polygon id="seed19" serif:id="seed" points="69.25,36.086 69.25,43.325 44.935,43.325 44.935,36.086 69.25,36.086 "/></clipPath><g clip-path="url(#_clip7)"><path d="M69.25,39.715c-3.201,2.252 -7.471,3.628 -12.158,3.628c-4.686,0 -8.956,-1.376 -12.157,-3.628c3.201,-2.253 7.471,-3.629 12.157,-3.629c4.687,0 8.957,1.376 12.158,3.629Z" style="fill:#fff;"/></g><g id="seed20" serif:id="seed"></g></g><g id="seed21" serif:id="seed"><clipPath id="_clip8"><polygon id="seed22" serif:id="seed" points="58.037,16.255 63.156,21.374 45.962,38.567 40.844,33.449 58.037,16.255 "/></clipPath><g clip-path="url(#_clip8)"><path d="M60.603,18.821c-0.671,3.856 -2.717,7.849 -6.031,11.162c-3.314,3.314 -7.306,5.361 -11.163,6.032c0.671,-3.857 2.718,-7.849 6.032,-11.163c3.313,-3.314 7.306,-5.36 11.162,-6.031Z" style="fill:#fff;"/></g><g id="seed23" serif:id="seed"></g></g></g><path d="M39.706,0c21.914,0 39.705,17.791 39.705,39.706c0,21.914 -17.791,39.705 -39.705,39.705c-21.915,0 -39.706,-17.791 -39.706,-39.705c0,-21.915 17.791,-39.706 39.706,-39.706Zm-0,5.17c19.06,-0 34.535,15.475 34.535,34.536c0,19.06 -15.475,34.535 -34.535,34.535c-19.061,0 -34.536,-15.475 -34.536,-34.535c-0,-19.061 15.475,-34.536 34.536,-34.536Z" style="fill:#fff;"/></g></svg>